<svg xmlns="http://www.w3.org/2000/svg" viewBox="0 0 64 64" width="64" height="64">
    <rect width="64" height="64" rx="32" fill="#f1ecff"/>
    <path d="M15 65c2-13 10-20 17-20s15 7 17 20H15Z" fill="#00a676"/>
    <circle cx="32" cy="31" r="18" fill="#8b5a43"/>
    <path d="M17 28c0-13 9-22 22-18 8 2 12 9 10 19-7-9-19-12-32-1Z" fill="#44261d"/>
    <circle cx="24" cy="29" r="2" fill="#171717"/>
    <circle cx="39" cy="29" r="2" fill="#171717"/>
    <path d="M26 43 Q32 48 39 43" fill="none" stroke="#5a2928" stroke-width="2" stroke-linecap="round"/>
    <circle cx="22" cy="36" r="2.6" fill="#ef8ca8" opacity=".32"/>
    <circle cx="42" cy="36" r="2.6" fill="#ef8ca8" opacity=".32"/>
    <circle cx="45" cy="34" r="2.4" fill="#f7d046"/><circle cx="19" cy="34" r="2.4" fill="#f7d046"/>
  </svg>