<svg xmlns="http://www.w3.org/2000/svg" viewBox="0 0 64 64" width="64" height="64">
    <rect width="64" height="64" rx="32" fill="#e9f0ff"/>
    <path d="M15 65c2-13 10-20 17-20s15 7 17 20H15Z" fill="#ef476f"/>
    <circle cx="32" cy="31" r="18" fill="#c08666"/>
    <path d="M19 21c5-10 22-10 27 0 2 4 2 8 1 13-8-6-19-8-30-3 0-4 0-7 2-10Z" fill="#111827"/>
    <circle cx="24" cy="30" r="2" fill="#171717"/>
    <circle cx="39" cy="30" r="2" fill="#171717"/>
    <path d="M28 43 L38 43" fill="none" stroke="#5a2928" stroke-width="2" stroke-linecap="round"/>
    <circle cx="22" cy="36" r="2.6" fill="#ef8ca8" opacity=".32"/>
    <circle cx="42" cy="36" r="2.6" fill="#ef8ca8" opacity=".32"/>
    <path d="M22 18h20" stroke="#fff" stroke-width="3" stroke-linecap="round" opacity=".82"/>
  </svg>