<svg xmlns="http://www.w3.org/2000/svg" viewBox="0 0 64 64" width="64" height="64">
    <rect width="64" height="64" rx="32" fill="#f8f1e8"/>
    <path d="M15 65c2-13 10-20 17-20s15 7 17 20H15Z" fill="#2b2d42"/>
    <circle cx="32" cy="31" r="18" fill="#d7a17e"/>
    <path d="M14 34c0-16 9-25 22-25 11 0 18 8 17 22-9-8-23-9-39 3Z" fill="#7a533d"/>
    <circle cx="25" cy="29" r="2" fill="#171717"/>
    <circle cx="38" cy="29" r="2" fill="#171717"/>
    <path d="M27 43 Q32 45 38 43" fill="none" stroke="#5a2928" stroke-width="2" stroke-linecap="round"/>
    <circle cx="22" cy="36" r="2.6" fill="#ef8ca8" opacity=".32"/>
    <circle cx="42" cy="36" r="2.6" fill="#ef8ca8" opacity=".32"/>
    <circle cx="45" cy="34" r="2.4" fill="#f7d046"/><circle cx="19" cy="34" r="2.4" fill="#f7d046"/>
  </svg>