<svg xmlns="http://www.w3.org/2000/svg" viewBox="0 0 64 64" width="64" height="64">
    <rect width="64" height="64" rx="32" fill="#e9f8ef"/>
    <path d="M15 65c2-13 10-20 17-20s15 7 17 20H15Z" fill="#00bbf9"/>
    <circle cx="32" cy="31" r="18" fill="#6f4635"/>
    <path d="M15 31c1-15 9-24 23-23 14 1 17 15 13 28-8-11-22-15-36-5Z" fill="#2b1b17"/>
    <circle cx="25" cy="31" r="2" fill="#171717"/>
    <circle cx="38" cy="31" r="2" fill="#171717"/>
    <path d="M28 42 Q32 46 37 42" fill="none" stroke="#5a2928" stroke-width="2" stroke-linecap="round"/>
    <circle cx="22" cy="36" r="2.6" fill="#ef8ca8" opacity=".32"/>
    <circle cx="42" cy="36" r="2.6" fill="#ef8ca8" opacity=".32"/>
    <circle cx="22" cy="29" r="5" fill="none" stroke="#1f2937" stroke-width="1.6"/><circle cx="42" cy="29" r="5" fill="none" stroke="#1f2937" stroke-width="1.6"/><path d="M27 29h10" stroke="#1f2937" stroke-width="1.5"/>
  </svg>